# This file uses centimeters as units for non-parametric coordinates.

mtllib Mesa.mtl
g default
v -0.500000 0.557042 0.385039
v 0.500000 0.557042 0.385039
v -0.500000 0.591907 0.385039
v 0.500000 0.591907 0.385039
v -0.500000 0.591907 -0.385039
v 0.500000 0.591907 -0.385039
v -0.500000 0.557042 -0.385039
v 0.500000 0.557042 -0.385039
v 0.000000 0.591907 1.128175
v 0.000000 0.591907 -1.128175
v 0.000000 0.557042 -1.128175
v 0.000000 0.557042 1.128175
v -0.500000 0.591907 0.000000
v -0.500000 0.557042 0.000000
v 0.500000 0.557042 0.000000
v 0.500000 0.591907 0.000000
v 0.000000 0.591907 0.000000
v 0.250000 0.591907 -1.047352
v 0.250000 0.557042 -1.047352
v 0.250000 0.557042 1.047352
v 0.250000 0.591907 1.047352
v 0.250000 0.591907 0.000000
v -0.250000 0.591907 -1.047352
v -0.250000 0.557042 -1.047352
v -0.250000 0.557042 1.047352
v -0.250000 0.591907 1.047352
v -0.250000 0.591907 0.000000
v 0.125000 0.591907 0.000000
v 0.125000 0.591907 1.115858
v 0.125000 0.557042 1.115858
v 0.125000 0.557042 -1.115858
v 0.125000 0.591907 -1.115858
v -0.125000 0.591907 0.000000
v -0.125000 0.591907 1.115858
v -0.125000 0.557042 1.115858
v -0.125000 0.557042 -1.115858
v -0.125000 0.591907 -1.115858
v 0.375000 0.591907 0.000000
v 0.375000 0.591907 0.898870
v 0.375000 0.557042 0.898870
v 0.375000 0.557042 -0.898870
v 0.375000 0.591907 -0.898870
v -0.375000 0.591907 0.000000
v -0.375000 0.591907 0.898870
v -0.375000 0.557042 0.898870
v -0.375000 0.557042 -0.898870
v -0.375000 0.591907 -0.898870
v 0.437500 0.591907 -0.754187
v 0.437500 0.557042 -0.754187
v 0.437500 0.557042 0.754187
v 0.437500 0.591907 0.754187
v 0.437500 0.591907 0.000000
v -0.437500 0.591907 -0.754187
v -0.437500 0.557042 -0.754187
v -0.437500 0.557042 0.754187
v -0.437500 0.591907 0.754187
v -0.437500 0.591907 0.000000
v -0.023402 0.001395 0.672231
v 0.023402 0.001395 0.672231
v -0.023402 0.554517 0.672231
v 0.023402 0.554517 0.672231
v -0.024687 0.555127 -0.535348
v 0.024687 0.555127 -0.535348
v -0.024687 0.001637 -0.535348
v 0.024687 0.001637 -0.535348
v 0.296524 0.551478 -0.472611
v -0.296524 0.551478 -0.472611
v -0.296524 0.000605 -0.472611
v 0.296524 0.000605 -0.472611
v 0.296524 0.551478 -0.536116
v -0.296524 0.551478 -0.536116
v -0.296524 0.000605 -0.536116
v 0.296524 0.000605 -0.536116
v 0.021993 0.000605 0.974090
v 0.021993 0.551478 0.974090
v 0.021993 0.551478 -0.472611
v 0.021993 0.551478 -0.974090
v 0.021993 0.000605 -0.974090
v 0.021993 0.000605 -0.472611
v -0.021993 0.000605 0.974090
v -0.021993 0.551478 0.974090
v -0.021993 0.551478 -0.472611
v -0.021993 0.551478 -0.974090
v -0.021993 0.000605 -0.974090
v -0.021993 0.000605 -0.472611
v 0.021993 0.551478 0.624431
v -0.021993 0.551478 0.624431
v -0.296524 0.551478 0.624431
v -0.296524 0.000605 0.624431
v -0.021993 0.000605 0.624431
v 0.021993 0.000605 0.624431
v 0.296524 0.000605 0.624431
v 0.296524 0.551478 0.624431
v -0.296524 0.551478 0.672327
v -0.296524 0.000605 0.672327
v 0.296524 0.000605 0.672327
v 0.296524 0.551478 0.672327
vt 0.101808 0.769227
vt 0.110811 0.769227
vt 0.110811 0.841255
vt 0.101808 0.841255
vt 0.110811 0.877269
vt 0.101808 0.877269
vt 0.101808 0.913282
vt 0.110811 0.913282
vt 0.110811 0.985310
vt 0.101808 0.985310
vt 0.164832 0.769227
vt 0.200846 0.769227
vt 0.200846 0.841255
vt 0.164832 0.841255
vt 0.056790 0.769227
vt 0.092804 0.769227
vt 0.092804 0.841255
vt 0.056790 0.841255
vt 0.137821 0.841255
vt 0.146825 0.841255
vt 0.146825 0.877269
vt 0.137821 0.877269
vt 0.137821 0.985310
vt 0.137821 0.913282
vt 0.146825 0.913282
vt 0.146825 0.985310
vt 0.137821 0.769227
vt 0.146825 0.769227
vt 0.020776 0.769227
vt 0.020776 0.841255
vt 0.236860 0.769227
vt 0.236860 0.841255
vt 0.155828 0.985310
vt 0.155828 0.913282
vt 0.160330 0.913282
vt 0.160330 0.985310
vt 0.155828 0.841255
vt 0.155828 0.769227
vt 0.160330 0.769227
vt 0.160330 0.841255
vt 0.155828 0.877269
vt 0.160330 0.877269
vt 0.119815 0.913282
vt 0.128818 0.913282
vt 0.128818 0.985310
vt 0.119815 0.985310
vt 0.119815 0.841255
vt 0.119815 0.769227
vt 0.128818 0.769227
vt 0.128818 0.841255
vt 0.119815 0.877269
vt 0.128818 0.877269
vt 0.097306 0.841255
vt 0.097306 0.877269
vt 0.092804 0.877269
vt 0.097306 0.769227
vt 0.092804 0.913282
vt 0.097306 0.913282
vt 0.097306 0.985310
vt 0.092804 0.985310
vt 0.164832 0.913282
vt 0.164832 0.985310
vt 0.164832 0.877269
vt 0.114184 0.265777
vt 0.128101 0.265777
vt 0.128101 0.321445
vt 0.114184 0.321445
vt 0.114184 0.377113
vt 0.128101 0.377113
vt 0.128101 0.432781
vt 0.114184 0.432781
vt 0.169853 0.265777
vt 0.173332 0.265777
vt 0.173332 0.321445
vt 0.169853 0.321445
vt 0.110705 0.265777
vt 0.110705 0.321445
vt 0.100267 0.265777
vt 0.100267 0.321445
vt 0.072433 0.321445
vt 0.072433 0.265777
vt 0.211604 0.321445
vt 0.183770 0.321445
vt 0.183770 0.265777
vt 0.211604 0.265777
vt 0.058516 0.265777
vt 0.058516 0.321445
vt 0.225521 0.265777
vt 0.225521 0.321445
vt 0.155936 0.265777
vt 0.155936 0.321445
vt 0.155936 0.432781
vt 0.155936 0.377113
vt 0.169853 0.377113
vt 0.169853 0.432781
vt 0.107226 0.265777
vt 0.107226 0.321445
vt 0.176811 0.265777
vt 0.176811 0.321445
vt 0.030682 0.488449
vt 0.133761 0.488449
vt 0.133761 0.265777
vt 0.030682 0.265777
vt 0.030682 0.488449
vt 0.133761 0.488449
vt 0.133761 0.265777
vt 0.030682 0.265777
vt 0.030682 0.265777
vt 0.133761 0.265777
vt 0.133761 0.488449
vt 0.030682 0.488449
vt 0.030682 0.488449
vt 0.133761 0.488449
vt 0.133761 0.265777
vt 0.030682 0.265777
vt 0.030682 0.265777
vt 0.137967 0.265777
vt 0.137967 0.488449
vt 0.030682 0.488449
vt 0.030682 0.265777
vt 0.137967 0.265777
vt 0.137967 0.488449
vt 0.030682 0.488449
vn -0.842435 0.000000 0.538798
vn -0.655485 0.000000 0.755208
vn -0.655485 0.000000 0.755208
vn -0.842435 0.000000 0.538798
vn 0.000000 1.000000 0.000000
vn 0.000000 1.000000 0.000000
vn 0.000000 1.000000 0.000000
vn 0.000000 1.000000 0.000000
vn -0.842435 0.000000 -0.538798
vn -0.655485 0.000000 -0.755208
vn -0.655485 0.000000 -0.755208
vn -0.842435 0.000000 -0.538798
vn 1.000000 0.000000 0.000000
vn 1.000000 0.000000 0.000000
vn 1.000000 0.000000 0.000000
vn 1.000000 0.000000 0.000000
vn -1.000000 0.000000 0.000000
vn -1.000000 0.000000 0.000000
vn -1.000000 0.000000 0.000000
vn -1.000000 0.000000 0.000000
vn 0.000000 1.000000 0.000000
vn 0.000000 1.000000 0.000000
vn 0.000000 1.000000 0.000000
vn 0.000000 1.000000 0.000000
vn 0.307617 0.000000 -0.951510
vn 0.307617 0.000000 -0.951510
vn 0.655485 0.000000 -0.755208
vn 0.655485 0.000000 -0.755208
vn 0.307617 0.000000 0.951510
vn 0.307617 0.000000 0.951510
vn 0.655485 0.000000 0.755208
vn 0.655485 0.000000 0.755208
vn -1.000000 0.000000 0.000000
vn -1.000000 0.000000 0.000000
vn 1.000000 0.000000 0.000000
vn 1.000000 0.000000 0.000000
vn 0.000000 1.000000 0.000000
vn 0.000000 1.000000 0.000000
vn 0.000000 1.000000 0.000000
vn 0.000000 1.000000 0.000000
vn 0.842435 0.000000 -0.538798
vn 0.842435 0.000000 -0.538798
vn 0.971662 0.000000 -0.236377
vn 0.971662 0.000000 -0.236377
vn 0.842435 0.000000 0.538798
vn 0.842435 0.000000 0.538798
vn 0.971662 0.000000 0.236377
vn 0.971662 0.000000 0.236377
vn 0.000000 1.000000 0.000000
vn 0.000000 1.000000 0.000000
vn 0.000000 1.000000 0.000000
vn 0.000000 1.000000 0.000000
vn 0.000000 1.000000 0.000000
vn 0.000000 1.000000 0.000000
vn -0.307617 0.000000 -0.951510
vn 0.000000 0.000000 -1.000000
vn 0.000000 0.000000 -1.000000
vn -0.307617 0.000000 -0.951510
vn -0.307617 0.000000 0.951510
vn -0.307617 0.000000 0.951510
vn 0.000000 0.000000 1.000000
vn 0.000000 0.000000 1.000000
vn 0.000000 1.000000 0.000000
vn 0.000000 1.000000 0.000000
vn 0.000000 1.000000 0.000000
vn 0.000000 1.000000 0.000000
vn 0.000000 1.000000 0.000000
vn 0.000000 1.000000 0.000000
vn 0.000000 1.000000 0.000000
vn 0.000000 1.000000 0.000000
vn 0.000000 1.000000 0.000000
vn 0.000000 1.000000 0.000000
vn -0.985968 0.000000 0.166933
vn -0.971662 0.000000 0.236377
vn -0.971662 0.000000 0.236377
vn -0.985968 0.000000 0.166933
vn -0.985968 0.000000 -0.166933
vn -0.971662 0.000000 -0.236377
vn -0.971662 0.000000 -0.236377
vn -0.985968 0.000000 -0.166933
vn 0.000000 1.000000 0.000000
vn 0.000000 1.000000 0.000000
vn 0.985968 0.000000 -0.166933
vn 0.985968 0.000000 -0.166933
vn 0.985968 0.000000 0.166933
vn 0.985968 0.000000 0.166933
vn 0.000000 1.000000 0.000000
vn 0.000000 1.000000 0.000000
vn 0.000000 1.000000 0.000000
vn -0.999989 0.000000 0.004669
vn -0.988889 0.000000 0.148659
vn -0.989058 0.000000 0.147528
vn -0.999989 0.000000 0.004669
vn -0.999981 0.000000 -0.006140
vn -0.994468 0.000000 -0.105045
vn -0.994397 0.000000 -0.105710
vn -0.999981 0.000000 -0.006140
vn -0.000350 0.000000 1.000000
vn 0.172361 0.000000 0.985034
vn 0.170875 0.000000 0.985293
vn -0.000350 0.000000 1.000000
vn -0.172361 0.000000 0.985034
vn 0.000350 0.000000 1.000000
vn 0.000350 0.000000 1.000000
vn -0.170875 0.000000 0.985293
vn -1.000000 0.000000 0.000000
vn -1.000000 0.000000 0.000000
vn -0.222538 0.000000 -0.974924
vn -0.224890 0.000000 -0.974384
vn 0.222538 0.000000 -0.974924
vn 1.000000 0.000000 0.000000
vn 1.000000 0.000000 0.000000
vn 0.224890 0.000000 -0.974384
vn 0.002826 0.000000 -0.999996
vn 0.002826 0.000000 -0.999996
vn -0.002826 0.000000 -0.999996
vn -0.002826 0.000000 -0.999996
vn 0.988889 0.000000 0.148659
vn 0.999989 0.000000 0.004669
vn 0.999989 0.000000 0.004669
vn 0.989058 0.000000 0.147528
vn 0.994397 0.000000 -0.105710
vn 0.994468 0.000000 -0.105045
vn 0.999981 0.000000 -0.006140
vn 0.999981 0.000000 -0.006140
vn -1.000000 0.000000 0.000000
vn -1.000000 0.000000 0.000000
vn 1.000000 0.000000 0.000000
vn 1.000000 0.000000 0.000000
vn 0.000000 0.000000 1.000000
vn 0.000000 0.000000 1.000000
vn 0.000000 0.000000 1.000000
vn 0.000000 0.000000 1.000000
vn 0.000000 0.000000 1.000000
vn 0.000000 0.000000 1.000000
vn 0.000000 0.000000 1.000000
vn 0.000000 0.000000 1.000000
vn 0.000000 0.000000 -1.000000
vn 0.000000 0.000000 -1.000000
vn 0.000000 0.000000 -1.000000
vn 0.000000 0.000000 -1.000000
vn 0.000000 0.000000 -1.000000
vn 0.000000 0.000000 -1.000000
vn 0.000000 0.000000 -1.000000
vn 0.000000 0.000000 -1.000000
vn 1.000000 0.000000 0.000000
vn 1.000000 0.000000 0.000000
vn 1.000000 0.000000 0.000000
vn 1.000000 0.000000 0.000000
vn -1.000000 0.000000 0.000000
vn -1.000000 0.000000 0.000000
vn -1.000000 0.000000 0.000000
vn -1.000000 0.000000 0.000000
s 1
g polySurface2
usemtl initialShadingGroup
f 45/1/1 25/2/2 26/3/3 44/4/4
s 2
f 44/4/5 26/3/6 27/5/7 43/6/8
s 3
f 47/7/9 23/8/10 24/9/11 46/10/12
s 4
f 2/11/13 15/12/14 16/13/15 4/14/16
s 5
f 14/15/17 1/16/18 3/17/19 13/18/20
s 2
f 29/19/21 21/20/22 22/21/23 28/22/24
s 3
f 31/23/25 32/24/26 18/25/27 19/26/28
s 1
f 29/19/29 30/27/30 20/28/31 21/20/32
s 5
f 7/29/33 14/15/17 13/18/20 5/30/34
s 4
f 16/13/15 15/12/14 8/31/35 6/32/36
s 2
f 32/24/37 28/22/24 22/21/23 18/25/38
f 47/7/39 43/6/8 27/5/7 23/8/40
s 3
f 41/33/41 42/34/42 48/35/43 49/36/44
s 1
f 39/37/45 40/38/46 50/39/47 51/40/48
s 2
f 38/41/49 39/37/50 51/40/51 52/42/52
f 42/34/53 38/41/49 52/42/52 48/35/54
s 3
f 37/43/55 10/44/56 11/45/57 36/46/58
s 1
f 34/47/59 35/48/60 12/49/61 9/50/62
s 2
f 33/51/63 34/47/64 9/50/65 17/52/66
f 37/43/67 33/51/63 17/52/66 10/44/68
f 9/50/65 29/19/21 28/22/24 17/52/66
s 1
f 9/50/62 12/49/61 30/27/30 29/19/29
s 3
f 11/45/57 10/44/56 32/24/26 31/23/25
s 2
f 17/52/66 28/22/24 32/24/37 10/44/68
f 27/5/7 26/3/6 34/47/64 33/51/63
s 1
f 26/3/3 25/2/2 35/48/60 34/47/59
s 3
f 23/8/10 37/43/55 36/46/58 24/9/11
s 2
f 23/8/40 27/5/7 33/51/63 37/43/67
f 22/21/23 21/20/22 39/37/50 38/41/49
s 1
f 21/20/32 20/28/31 40/38/46 39/37/45
s 3
f 19/26/28 18/25/27 42/34/42 41/33/41
s 2
f 18/25/38 22/21/23 38/41/49 42/34/53
f 3/17/69 56/53/70 57/54/71 13/55/72
s 1
f 1/16/73 55/56/74 56/53/75 3/17/76
s 3
f 5/57/77 53/58/78 54/59/79 7/60/80
s 2
f 13/55/72 57/54/71 53/58/81 5/57/82
s 3
f 49/36/44 48/35/43 6/61/83 8/62/84
s 1
f 51/40/48 50/39/47 2/11/85 4/14/86
s 2
f 52/42/52 51/40/51 4/14/87 16/63/88
f 48/35/54 52/42/52 16/63/88 6/61/89
s 3
f 53/58/78 47/7/9 46/10/12 54/59/79
s 1
f 56/53/75 55/56/74 45/1/1 44/4/4
s 2
f 57/54/71 56/53/70 44/4/5 43/6/8
f 53/58/81 57/54/71 43/6/8 47/7/39
s 9
f 58/64/90 80/65/91 81/66/92 60/67/93
s 10
f 62/68/94 83/69/95 84/70/96 64/71/97
s 11
f 59/72/98 96/73/99 97/74/100 61/75/101
s 12
f 95/76/102 58/64/103 60/67/104 94/77/105
s 13
f 68/78/106 67/79/107 71/80/108 72/81/109
s 14
f 70/82/110 66/83/111 69/84/112 73/85/113
s 13
f 64/86/114 72/81/109 71/80/108 62/87/115
s 14
f 70/82/110 73/85/113 65/88/116 63/89/117
s 9
f 74/90/118 59/72/119 61/75/120 75/91/121
s 10
f 78/92/122 77/93/123 63/94/124 65/95/125
s 9
f 75/91/121 81/66/92 80/65/91 74/90/118
s 10
f 78/92/122 84/70/96 83/69/95 77/93/123
s 12
f 89/96/126 95/76/102 94/77/105 88/97/127
s 11
f 97/74/100 96/73/99 92/98/128 93/99/129
s off
f 82/100/130 67/101/131 68/102/132 85/103/133
f 66/104/134 76/105/135 79/106/136 69/107/137
f 88/108/138 87/109/139 90/110/140 89/111/141
f 92/112/142 91/113/143 86/114/144 93/115/145
f 91/116/146 79/117/147 76/118/148 86/119/149
f 85/120/150 90/121/151 87/122/152 82/123/153
