# This file uses centimeters as units for non-parametric coordinates.

mtllib silla.mtl
g default
v -0.468036 0.948124 0.716638
v 0.468036 0.948124 0.716638
v -0.399252 1.787282 0.440505
v 0.399252 1.787282 0.440505
v -0.495475 1.063763 -0.395214
v 0.408175 1.063763 -0.395214
v -0.468036 0.948124 -0.500000
v 0.468036 0.948124 -0.500000
v 0.520834 1.054235 0.684327
v -0.520834 1.054235 0.684327
v -0.477315 1.054235 -0.498896
v 0.477315 1.054235 -0.498896
v 0.000000 1.063763 -0.395214
v 0.000000 1.054235 -0.568962
v 0.000000 0.948124 -0.500000
v 0.000000 0.948124 0.716638
v 0.000000 1.054235 0.684327
v 0.000000 1.063763 0.531688
v -0.520966 1.055733 0.532897
v -0.520834 1.054235 0.247860
v -0.468036 0.948124 0.247860
v 0.000000 0.948124 0.247860
v 0.468036 0.948124 0.247860
v 0.520834 1.054235 0.247860
v 0.522724 1.057532 0.529291
v -0.393887 0.948124 -0.500000
v -0.393887 0.948124 0.247860
v -0.393887 0.948124 0.716638
v -0.425758 1.054235 0.684327
v -0.307165 1.787282 0.440505
v -0.422578 1.063763 0.531688
v -0.150840 1.063763 -0.395214
v -0.425758 1.054235 -0.568962
v 0.393887 0.948124 -0.500000
v 0.393887 0.948124 0.247860
v 0.393887 0.948124 0.716638
v 0.454211 1.054235 0.684327
v 0.307165 1.787282 0.440505
v 0.451031 1.063763 0.531688
v 0.371869 1.063763 -0.395214
v 0.454211 1.054235 -0.568962
v 0.393887 0.948124 -0.342554
v 0.000000 0.948124 -0.342554
v -0.393887 0.948124 -0.342554
v -0.468036 0.948124 -0.342554
v -0.520834 1.054235 -0.284481
v -0.495475 1.063763 -0.145214
v -0.150840 1.063763 -0.145214
v 0.000000 1.063763 -0.145214
v 0.371869 1.063763 -0.145214
v 0.408175 1.063763 -0.145214
v 0.520834 1.054235 -0.284481
v 0.468036 0.948124 -0.342554
v 0.393887 0.948124 0.584030
v 0.000000 0.948124 0.584030
v -0.393887 0.948124 0.584030
v -0.468036 0.948124 0.584030
v -0.399252 1.787282 0.305210
v -0.307165 1.787282 0.305210
v 0.307165 1.787282 0.305210
v 0.399252 1.787282 0.305210
v 0.468036 0.948124 0.584030
v -0.666738 0.006081 -0.744409
v -0.616664 0.006081 -0.744409
v -0.616664 0.006081 -0.586963
v -0.666738 0.006081 -0.586963
v 0.654569 0.006081 -0.586963
v 0.604495 0.006081 -0.586963
v 0.604495 0.006081 -0.744409
v 0.654569 0.006081 -0.744409
v -0.616664 0.006081 0.828440
v -0.666738 0.006081 0.828440
v -0.616664 0.006081 0.992270
v -0.666738 0.006081 0.992270
v 0.604495 0.006081 0.828440
v 0.604495 0.006081 0.992270
v 0.654569 0.006081 0.828440
v 0.654569 0.006081 0.992270
v -0.399252 2.193636 0.440505
v -0.307165 2.193636 0.440505
v -0.307165 2.193636 0.305210
v -0.399252 2.193636 0.305210
v 0.307165 2.193636 0.440505
v 0.307165 2.193636 0.305210
v 0.399252 2.193636 0.305210
v 0.399252 2.193636 0.440505
v -0.424078 1.744272 0.317564
v 0.424078 1.744272 0.317564
v -0.424078 2.256056 0.317564
v 0.424078 2.256056 0.317564
v -0.424078 2.256056 0.272623
v 0.424078 2.256056 0.272623
v -0.424078 1.744272 0.272623
v 0.424078 1.744272 0.272623
v 0.000000 2.256056 0.329021
v 0.000000 1.744272 0.329021
v 0.000000 1.744272 0.373963
v 0.000000 2.256056 0.373963
vt 0.860296 0.782691
vt 0.913215 0.782691
vt 0.860296 0.835610
vt 0.913215 0.835610
vt 0.860296 0.888529
vt 0.913215 0.888529
vt 0.860296 0.941448
vt 0.913215 0.941448
vt 0.860296 0.994367
vt 0.913215 0.994367
vt 0.060564 0.335483
vt 0.966134 0.835610
vt 0.097590 0.342243
vt 0.807377 0.835610
vt 0.913215 0.809151
vt 0.860296 0.809151
vt 0.807377 0.809151
vt 0.860296 0.914989
vt 0.913215 0.914989
vt 0.966134 0.809151
vt 0.886755 0.888529
vt 0.886755 0.914989
vt 0.886755 0.941448
vt 0.886755 0.782691
vt 0.886755 0.994367
vt 0.886755 0.809151
vt 0.886755 0.862070
vt 0.833836 0.835610
vt 0.860296 0.862070
vt 0.833836 0.809151
vt 0.095481 0.352663
vt 0.860296 0.967908
vt 0.886755 0.967908
vt 0.913215 0.967908
vt 0.063838 0.347241
vt 0.939674 0.809151
vt 0.913215 0.862070
vt 0.939674 0.835610
vt 0.873525 0.941448
vt 0.873525 0.967908
vt 0.873525 0.782691
vt 0.873525 0.994367
vt 0.873525 0.809151
vt 0.091913 0.358395
vt 0.873525 0.862070
vt 0.873525 0.888529
vt 0.873525 0.914989
vt 0.899985 0.941448
vt 0.899985 0.967908
vt 0.899985 0.782691
vt 0.899985 0.994367
vt 0.899985 0.809151
vt 0.899985 0.835610
vt 0.899985 0.862070
vt 0.899985 0.888529
vt 0.899985 0.914989
vt 0.899985 0.954678
vt 0.886755 0.954678
vt 0.873525 0.954678
vt 0.096655 0.359254
vt 0.860296 0.954678
vt 0.820606 0.809151
vt 0.820606 0.835610
vt 0.860296 0.875300
vt 0.873525 0.875300
vt 0.886755 0.875300
vt 0.899985 0.875300
vt 0.913215 0.875300
vt 0.952904 0.835610
vt 0.952904 0.809151
vt 0.913215 0.954678
vt 0.066573 0.353788
vt 0.899985 0.981138
vt 0.886755 0.981138
vt 0.873525 0.981138
vt 0.847066 0.782691
vt 0.860296 0.981138
vt 0.847066 0.809151
vt 0.847066 0.835610
vt 0.860296 0.848840
vt 0.873525 0.848840
vt 0.899985 0.848840
vt 0.913215 0.848840
vt 0.926444 0.835610
vt 0.926444 0.809151
vt 0.913215 0.981138
vt 0.926444 0.782691
vt 0.860296 0.941448
vt 0.873525 0.941448
vt 0.873525 0.954678
vt 0.860296 0.954678
vt 0.913215 0.954678
vt 0.899985 0.954678
vt 0.899985 0.941448
vt 0.913215 0.941448
vt 0.860296 0.981138
vt 0.873525 0.981138
vt 0.873525 0.994367
vt 0.860296 0.994367
vt 0.899985 0.994367
vt 0.899985 0.981138
vt 0.913215 0.981138
vt 0.913215 0.994367
vt 0.860296 0.835610
vt 0.102225 0.358395
vt 0.097793 0.367062
vt 0.860296 0.848840
vt 0.899985 0.835610
vt 0.899985 0.848840
vt 0.913215 0.848840
vt 0.913215 0.835610
vt 0.806344 0.782691
vt 0.992593 0.782691
vt 0.900745 0.884160
vt 0.780917 0.831827
vt 0.780917 0.782691
vt 0.944541 0.782691
vt 0.992593 0.941025
vt 0.787549 0.850590
vt 0.780917 0.994367
vt 0.870987 0.994367
vt 0.936417 0.782691
vt 0.780917 0.782691
vt 0.846348 0.994367
vt 0.936417 0.994367
vt 0.936417 0.782691
vt 0.780917 0.782691
vt 0.084570 0.367062
vt 0.090623 0.367062
vt 0.097793 0.367062
vt 0.102225 0.358395
vt 0.091913 0.358395
vt 0.114286 0.426931
vt 0.101479 0.426931
vt 0.126215 0.368516
vt 0.117590 0.359606
vt 0.128191 0.359606
vt 0.135740 0.368516
vt 0.118357 0.430064
vt 0.105191 0.430064
vt 0.117590 0.359606
vt 0.126215 0.368516
vt 0.129518 0.368516
vt 0.128191 0.359606
vt 0.101479 0.460118
vt 0.114286 0.460118
vt 0.114286 0.460118
vt 0.101479 0.460118
vt 0.118357 0.464183
vt 0.105191 0.464183
vt 0.105191 0.464183
vt 0.118357 0.464183
vt 0.071243 0.281457
vt 0.064279 0.281457
vt 0.154861 0.280510
vt 0.147702 0.280510
vt 0.064279 0.281457
vt 0.071243 0.281457
vt 0.147702 0.280510
vt 0.154861 0.280510
vt 0.114286 0.426931
vt 0.145534 0.447483
vt 0.150555 0.448659
vt 0.177914 0.384770
vt 0.174615 0.383916
vt 0.085864 0.433509
vt 0.091094 0.434734
vt 0.091729 0.362469
vt 0.088228 0.361563
vt 0.130612 0.462847
vt 0.126193 0.461841
vt 0.142142 0.415487
vt 0.144886 0.416160
vt 0.078405 0.450960
vt 0.073826 0.449917
vt 0.070693 0.397985
vt 0.073574 0.398691
vt 0.069522 0.364855
vt 0.094884 0.369312
vt 0.163244 0.371352
vt 0.149264 0.368812
vt 0.142025 0.377851
vt 0.161542 0.380829
vt 0.154892 0.363477
vt 0.162278 0.354054
vt 0.179456 0.357190
vt 0.177793 0.368515
vt 0.860296 0.782691
vt 0.886755 0.782691
vt 0.886755 0.835610
vt 0.860296 0.835610
vt 0.098026 0.465216
vt 0.157005 0.465216
vt 0.157005 0.465216
vt 0.098026 0.465216
vt 0.860296 0.888529
vt 0.886755 0.888529
vt 0.886755 0.941448
vt 0.860296 0.941448
vt 0.098026 0.423418
vt 0.157005 0.423418
vt 0.157005 0.423418
vt 0.098026 0.423418
vt 0.215983 0.423418
vt 0.215983 0.423418
vt 0.215983 0.465216
vt 0.215983 0.465216
vt 0.913215 0.888529
vt 0.913215 0.941448
vt 0.913215 0.782691
vt 0.913215 0.835610
vn 0.000000 0.291296 0.956633
vn 0.000000 0.291296 0.956633
vn 0.000000 0.306419 0.951897
vn 0.000000 0.313344 0.949639
vn -0.008937 0.969200 -0.246113
vn -0.015980 0.909186 -0.416083
vn 0.006545 -0.298916 -0.954257
vn 0.006545 -0.298916 -0.954257
vn -0.078603 0.980038 -0.182614
vn -0.065518 0.487683 -0.870559
vn -0.047394 -0.530975 -0.846061
vn -0.456058 -0.350055 -0.818213
vn 0.000000 -1.000000 0.000000
vn 0.000000 -1.000000 0.000000
vn 0.000000 -1.000000 0.000000
vn 0.000000 -1.000000 0.000000
vn 0.894916 -0.446234 0.000145
vn 0.895134 -0.445798 -0.000128
vn 0.918009 0.396543 -0.003603
vn 0.999620 -0.026932 0.005912
vn -0.895692 -0.444676 0.000314
vn -0.896235 -0.443579 -0.000342
vn -0.999566 -0.029440 0.001030
vn -0.969781 -0.243979 -0.000063
vn 0.000000 0.315614 0.948888
vn 0.000000 0.315614 0.948888
vn -0.010420 0.998208 -0.058920
vn -0.001278 0.998471 -0.055266
vn 0.000000 0.560155 -0.828388
vn 0.000000 0.998500 -0.054755
vn 0.002474 0.998532 -0.054101
vn 0.060908 0.626357 -0.777154
vn 0.000000 -0.544931 -0.838481
vn 0.036437 -0.541227 -0.840087
vn 0.000000 -1.000000 0.000000
vn 0.000000 -1.000000 0.000000
vn 0.000000 -1.000000 0.000000
vn 0.000000 -1.000000 0.000000
vn 0.000000 0.291296 0.956633
vn 0.000000 0.291296 0.956633
vn 0.000000 0.291296 0.956633
vn 0.000000 0.306352 0.951918
vn -0.011607 0.999932 0.001250
vn -0.004298 0.999991 0.000463
vn 0.000000 1.000000 0.000000
vn 0.000000 1.000000 0.000000
vn -0.964445 -0.239039 -0.112720
vn -0.939695 -0.341495 -0.018817
vn -0.379475 0.925197 -0.002916
vn -0.535938 0.842763 -0.050221
vn -0.961702 -0.249925 -0.112547
vn -0.925048 -0.377667 -0.040673
vn 0.000000 -1.000000 0.000000
vn 0.000000 -1.000000 0.000000
vn 0.000000 -1.000000 0.000000
vn 0.000000 -1.000000 0.000000
vn 0.000000 -1.000000 0.000000
vn 0.000000 -1.000000 0.000000
vn 0.000000 -1.000000 0.000000
vn 0.000000 -1.000000 0.000000
vn 0.991530 0.128352 -0.019872
vn 0.925048 -0.377667 -0.040673
vn 0.961702 -0.249925 -0.112547
vn 0.947113 0.301575 -0.109678
vn 0.098179 0.995157 -0.004856
vn 0.092747 0.995652 -0.008691
vn 0.000000 1.000000 -0.000000
vn 0.004488 0.999990 -0.000284
vn 0.000000 1.000000 0.000000
vn 0.000000 1.000000 0.000000
vn 0.000000 -1.000000 0.000000
vn 0.000000 -1.000000 0.000000
vn 0.000000 -1.000000 0.000000
vn 0.000000 -1.000000 0.000000
vn 0.000000 -1.000000 0.000000
vn 0.000000 -1.000000 0.000000
vn 0.000000 -1.000000 0.000000
vn 0.000000 -1.000000 0.000000
vn 0.000000 0.291296 0.956633
vn 0.000000 0.313384 0.949627
vn 0.000000 0.315614 0.948888
vn 0.000000 0.315614 0.948888
vn -0.025383 -0.300288 -0.953511
vn 0.011009 0.329584 -0.944062
vn 0.001366 0.969869 -0.243622
vn -0.025383 -0.300288 -0.953511
vn 0.047023 0.998889 -0.002977
vn 0.000000 1.000000 0.000000
vn 0.049172 0.997920 -0.041695
vn 0.425455 0.707759 -0.563973
vn 0.532832 -0.411236 -0.739578
vn 0.000000 -1.000000 0.000000
vn -0.375493 0.926823 -0.001759
vn 0.000000 1.000000 -0.000000
vn 0.099022 0.995076 -0.004260
vn 0.000000 -1.000000 0.000000
vn 0.000000 -1.000000 0.000000
vn 0.000000 -1.000000 0.000000
vn 0.000000 -1.000000 0.000000
vn 0.000000 -1.000000 0.000000
vn 0.000000 -1.000000 0.000000
vn 0.000000 -1.000000 0.000000
vn 0.000000 -1.000000 0.000000
vn -0.896018 -0.444014 -0.001925
vn -0.998770 0.049581 0.000716
vn -0.986412 0.164284 0.001313
vn -0.986412 0.164284 0.001313
vn 0.000000 1.000000 0.000000
vn 0.000000 1.000000 0.000000
vn 0.000000 1.000000 0.000000
vn 0.000000 1.000000 0.000000
vn 0.000000 1.000000 0.000000
vn 0.000000 1.000000 0.000000
vn 0.000000 1.000000 0.000000
vn 0.000000 1.000000 0.000000
vn 0.998741 0.049673 0.007067
vn 0.985785 0.167805 0.008322
vn 0.985785 0.167805 0.008322
vn 0.895005 -0.446056 0.000769
vn 0.000000 -1.000000 0.000000
vn 0.000000 -1.000000 0.000000
vn 0.000000 -1.000000 0.000000
vn 0.000000 -1.000000 0.000000
vn 0.000000 0.251131 -0.967953
vn 0.000000 0.251131 -0.967953
vn 0.000000 0.251131 -0.967953
vn 0.000000 0.251131 -0.967953
vn 0.973159 -0.230135 0.000000
vn 0.973159 -0.230135 0.000000
vn 0.973159 -0.230135 0.000000
vn 0.973159 -0.230135 0.000000
vn 0.000000 -0.251131 0.967953
vn 0.000000 -0.251131 0.967953
vn 0.000000 -0.251131 0.967953
vn 0.000000 -0.251131 0.967953
vn -0.978471 0.206386 0.000000
vn -0.978471 0.206386 0.000000
vn -0.978471 0.206386 0.000000
vn -0.978471 0.206386 0.000000
vn 0.000000 -0.251131 0.967953
vn 0.000000 -0.251131 0.967953
vn 0.000000 -0.251131 0.967953
vn 0.000000 -0.251131 0.967953
vn -0.975909 -0.218180 0.000000
vn -0.975909 -0.218180 0.000000
vn -0.975909 -0.218180 0.000000
vn -0.975909 -0.218180 0.000000
vn 0.000000 0.251131 -0.967953
vn 0.000000 0.251131 -0.967953
vn 0.000000 0.251131 -0.967953
vn 0.000000 0.251131 -0.967953
vn 0.980954 0.194238 0.000000
vn 0.980954 0.194238 0.000000
vn 0.980954 0.194238 0.000000
vn 0.980954 0.194238 0.000000
vn 0.000000 -0.251132 -0.967953
vn 0.000000 -0.251132 -0.967953
vn 0.000000 -0.251132 -0.967953
vn 0.000000 -0.251132 -0.967953
vn 0.973159 -0.230135 0.000000
vn 0.973159 -0.230135 0.000000
vn 0.973159 -0.230135 0.000000
vn 0.973159 -0.230135 0.000000
vn 0.000000 0.280816 0.959762
vn 0.000000 0.280816 0.959762
vn 0.000000 0.280816 0.959762
vn 0.000000 0.280816 0.959762
vn -0.978471 0.206386 0.000000
vn -0.978471 0.206386 0.000000
vn -0.978471 0.206386 0.000000
vn -0.978471 0.206386 0.000000
vn -0.975909 -0.218180 0.000000
vn -0.975909 -0.218180 0.000000
vn -0.975909 -0.218180 0.000000
vn -0.975909 -0.218180 0.000000
vn 0.000000 -0.251132 -0.967953
vn 0.000000 -0.251132 -0.967953
vn 0.000000 -0.251132 -0.967953
vn 0.000000 -0.251132 -0.967953
vn 0.980954 0.194238 0.000000
vn 0.980954 0.194238 0.000000
vn 0.980954 0.194238 0.000000
vn 0.980954 0.194238 0.000000
vn 0.000000 0.280815 0.959762
vn 0.000000 0.280815 0.959762
vn 0.000000 0.280815 0.959762
vn 0.000000 0.280815 0.959762
vn 0.000000 0.000000 1.000000
vn 0.000000 0.000000 1.000000
vn 0.000000 0.000000 1.000000
vn 0.000000 0.000000 1.000000
vn -1.000000 0.000000 0.000000
vn -1.000000 0.000000 0.000000
vn -1.000000 0.000000 0.000000
vn -1.000000 0.000000 0.000000
vn 0.000000 0.000000 1.000000
vn 0.000000 0.000000 1.000000
vn 0.000000 0.000000 1.000000
vn 0.000000 0.000000 1.000000
vn 1.000000 0.000000 0.000000
vn 1.000000 0.000000 0.000000
vn 1.000000 0.000000 0.000000
vn 1.000000 0.000000 0.000000
vn 0.987611 -0.156819 0.005720
vn 0.987611 -0.156819 0.005720
vn 0.987611 -0.156819 0.005720
vn 0.987611 -0.156819 0.005720
vn -0.980895 -0.194489 0.004399
vn -0.980895 -0.194489 0.004399
vn -0.980895 -0.194489 0.004399
vn -0.980895 -0.194489 0.004399
vn 0.000000 0.998058 0.062299
vn 0.000000 0.998058 0.062299
vn 0.000000 0.998058 0.062299
vn 0.000000 0.998058 0.062299
vn 0.000000 0.998058 0.062299
vn 0.000000 0.998058 0.062299
vn 0.000000 0.998058 0.062299
vn 0.000000 0.998058 0.062299
vn -1.000000 0.000000 0.000000
vn -1.000000 0.000000 0.000000
vn -1.000000 0.000000 0.000000
vn -1.000000 0.000000 0.000000
vn 1.000000 0.000000 0.000000
vn 1.000000 0.000000 0.000000
vn 1.000000 0.000000 0.000000
vn 1.000000 0.000000 0.000000
vn -0.131830 -0.000000 0.991272
vn 0.000000 -0.000000 1.000000
vn 0.000000 -0.000000 1.000000
vn -0.131830 -0.000000 0.991272
vn 0.000000 1.000000 0.000000
vn 0.000000 1.000000 0.000000
vn 0.000000 1.000000 0.000000
vn 0.000000 1.000000 0.000000
vn 0.131830 0.000000 -0.991272
vn 0.000000 0.000000 -1.000000
vn 0.000000 0.000000 -1.000000
vn 0.131830 0.000000 -0.991272
vn 0.000000 -1.000000 0.000000
vn 0.000000 -1.000000 0.000000
vn 0.000000 -1.000000 0.000000
vn 0.000000 -1.000000 0.000000
vn 1.000000 0.000000 0.000000
vn 1.000000 0.000000 0.000000
vn 1.000000 0.000000 0.000000
vn 1.000000 0.000000 0.000000
vn -1.000000 0.000000 0.000000
vn -1.000000 0.000000 0.000000
vn -1.000000 0.000000 0.000000
vn -1.000000 0.000000 0.000000
vn -0.131830 0.000000 -0.991272
vn -0.131830 0.000000 -0.991272
vn 0.000000 -1.000000 0.000000
vn 0.000000 -1.000000 0.000000
vn 0.131830 -0.000000 0.991272
vn 0.131830 -0.000000 0.991272
vn 0.000000 1.000000 0.000000
vn 0.000000 1.000000 0.000000
s 1
g Silla
usemtl initialShadingGroup
f 1/44/1 28/105/2 29/106/3 10/128/4
s 2
f 31/45/5 19/29/6 58/80/7 59/81/8
s 3
f 11/129/9 33/130/10 26/131/11 7/132/12
s 4
f 21/32/13 27/40/14 56/75/15 57/77/16
s 5
f 62/11/17 23/13/18 24/31/19 25/35/20
s 6
f 21/60/21 57/72/22 19/178/23 20/179/24
s 1
f 10/128/4 29/106/3 30/133/25 3/134/26
s 3
f 5/5/27 32/46/28 33/47/10 11/18/9
f 14/22/29 13/21/30 40/55/31 41/56/32
f 15/23/33 14/22/29 41/56/32 34/48/34
s 4
f 55/74/35 22/33/36 35/49/37 54/73/38
s 1
f 17/26/39 16/24/40 36/50/41 37/52/42
s 2
f 47/64/43 48/65/44 32/46/45 5/5/46
s 6
f 11/17/47 46/62/48 47/63/49 5/14/50
f 7/180/51 45/181/52 46/182/48 11/183/47
s off
f 63/88/53 64/89/54 65/90/55 66/91/56
s 4
f 42/57/57 43/58/58 15/23/59 34/48/60
s 5
f 52/184/61 53/185/62 8/186/63 12/187/64
f 51/69/65 52/70/61 12/20/64 6/12/66
s 2
f 49/66/67 50/67/68 40/55/69 13/21/70
s 4
f 26/39/71 15/23/59 43/58/58 44/59/72
f 56/75/15 27/40/14 22/33/36 55/74/35
s 1
f 29/43/3 28/41/2 16/24/40 17/26/39
s 2
f 32/46/45 48/65/44 49/66/67 13/21/70
s 3
f 33/47/10 32/46/28 13/21/30 14/22/29
f 26/39/11 33/47/10 14/22/29 15/23/33
s off
f 67/92/73 68/93/74 69/94/75 70/95/76
s 4
f 62/86/77 54/73/38 35/49/37 23/34/78
s 1
f 37/135/42 36/136/41 2/137/79 9/138/80
f 37/135/42 9/138/80 4/139/81 38/140/82
s 2
f 61/83/83 25/37/84 39/54/85 60/82/86
f 40/55/69 50/67/68 51/68/87 6/6/88
s 3
f 41/56/32 40/55/31 6/6/89 12/19/90
f 34/141/34 41/142/32 12/143/90 8/144/91
s 4
f 35/49/37 22/33/36 43/58/58 42/57/57
f 44/59/72 43/58/58 22/33/36 27/40/14
f 45/61/92 44/59/72 27/40/14 21/32/13
s 6
f 46/182/48 45/181/52 21/60/21 20/179/24
f 47/63/49 46/62/48 20/30/24 19/28/93
s 2
f 19/29/6 31/45/5 48/65/44 47/64/43
f 49/66/67 48/65/44 31/45/5 18/27/94
f 18/27/94 39/54/85 50/67/68 49/66/67
f 51/68/87 50/67/68 39/54/85 25/37/84
s 5
f 25/38/95 24/36/19 52/70/61 51/69/65
f 24/31/19 23/13/18 53/185/62 52/184/61
s 4
f 23/34/78 35/49/37 42/57/57 53/71/96
f 16/25/97 55/74/35 54/73/38 36/51/98
f 28/42/99 56/75/15 55/74/35 16/25/97
s off
f 72/96/100 71/97/101 73/98/102 74/99/103
s 6
f 19/78/23 57/76/22 1/1/104 10/16/105
f 58/79/106 19/78/23 10/16/105 3/3/107
s off
f 79/145/108 80/146/109 81/147/110 82/148/111
f 85/149/112 84/150/113 83/151/114 86/152/115
s 5
f 9/15/116 25/85/20 61/84/117 4/4/118
f 2/2/119 62/87/17 25/85/20 9/15/116
s off
f 76/100/120 75/101/121 77/102/122 78/103/123
f 7/132/124 26/131/125 64/153/126 63/154/127
f 26/39/128 44/59/129 65/90/130 64/89/131
f 44/162/132 45/163/133 66/164/134 65/165/135
f 45/61/136 7/7/137 63/88/138 66/91/139
f 53/166/140 42/167/141 68/168/142 67/169/143
f 42/57/144 34/48/145 69/94/146 68/93/147
f 34/141/148 8/144/149 70/155/150 69/156/151
f 8/8/152 53/71/153 67/92/154 70/95/155
f 57/170/156 56/171/157 71/172/158 72/173/159
f 56/75/160 28/42/161 73/98/162 71/97/163
f 28/105/164 1/44/165 74/157/166 73/158/167
f 1/9/168 57/77/169 72/96/170 74/99/171
f 36/51/172 54/73/173 75/101/174 76/100/175
f 54/174/176 62/175/177 77/176/178 75/177/179
f 62/86/180 2/10/181 78/103/182 77/102/183
f 2/137/184 36/136/185 76/159/186 78/160/187
f 3/134/188 30/133/189 80/146/190 79/145/191
f 58/80/192 3/3/193 79/104/194 82/107/195
f 38/140/196 4/139/197 86/152/198 83/151/199
f 4/4/200 61/83/201 85/110/202 86/111/203
f 29/113/204 31/114/205 59/115/206 30/112/207
f 39/117/208 37/118/209 38/119/210 60/116/211
f 18/120/212 31/121/213 29/122/214 17/123/215
f 39/124/216 18/125/217 17/126/218 37/127/219
f 83/108/220 84/109/221 60/116/222 38/53/223
f 80/146/224 30/133/225 59/161/226 81/147/227
s 10
f 87/188/228 97/189/229 98/190/230 89/191/231
s 11
f 89/192/232 98/193/233 95/194/234 91/195/235
s 12
f 91/196/236 95/197/237 96/198/238 93/199/239
s 13
f 93/200/240 96/201/241 97/202/242 87/203/243
s off
f 88/204/244 94/205/245 92/206/246 90/207/247
f 93/200/248 87/203/249 89/192/250 91/195/251
s 12
f 95/197/237 92/208/252 94/209/253 96/198/238
s 13
f 97/202/242 96/201/241 94/205/254 88/204/255
s 10
f 98/190/230 97/189/229 88/210/256 90/211/257
s 11
f 95/194/234 98/193/233 90/207/258 92/206/259
